<?xml version="1.0" encoding="utf-8"?>
<!DOCTYPE svg PUBLIC "-//W3C//DTD SVG 1.1//EN" "http://www.w3.org/Graphics/SVG/1.1/DTD/svg11.dtd">
<svg version="1.1" id="Layer_1" xmlns="http://www.w3.org/2000/svg" xmlns:xlink="http://www.w3.org/1999/xlink" x="0px" y="0px"
	 width="137.964px" height="137.865px" viewBox="90.927 4.167 137.964 137.865"
	 enable-background="new 90.927 4.167 137.964 137.865" xml:space="preserve">
<g>
	<path fill="rgb(255,255,255)" d="M181.328,130.672c-0.176,0.368-0.208,0.816-0.049,1.232l1.809,4.544c0.08,0.208,0.208,0.384,0.368,0.544
		c0.433,0.4,1.056,0.527,1.601,0.304c4.127-1.632,8.127-3.68,11.871-6.096c0.336-0.224,0.576-0.56,0.672-0.96
		c0.08-0.4,0.017-0.801-0.207-1.152l-2.672-4.128c-0.064-0.096-0.145-0.192-0.24-0.288c-0.513-0.48-1.28-0.544-1.873-0.176
		c-3.312,2.128-6.832,3.952-10.479,5.408l0,0l0,0C182.128,129.92,181.439,130.32,181.328,130.672z"/>
	<path  fill="rgb(255,255,255)" d="M138.384,15.712c-0.512,0.192-1.104,0.064-1.504-0.32c-0.144-0.144-0.256-0.32-0.336-0.512l-1.696-4.576
		c-0.128-0.352-0.112-0.736,0.032-1.088c0.16-0.352,0.448-0.608,0.8-0.736c14.8-5.488,30.56-5.744,45.616-0.736
		c10.288,3.424,19.328,8.992,26.896,16.528c5.137,5.136,9.44,11.056,12.769,17.6l3.456-1.44c1.072-0.448,2.288-0.288,3.216,0.416
		c0.112,0.096,0.224,0.176,0.32,0.288l0,0l0,0c0.704,0.704,1.04,1.712,0.912,2.704l-1.952,15.152
		c-0.096,0.704-0.416,1.36-0.912,1.872c-0.305,0.304-0.656,0.544-1.057,0.704c-1.055,0.448-2.287,0.288-3.199-0.416l-12.145-9.28
		c-0.111-0.08-0.224-0.176-0.32-0.288c-0.623-0.624-0.975-1.488-0.943-2.368c0-0.08,0-0.208,0.032-0.368
		c0.096-0.688,0.416-1.344,0.911-1.84c0.305-0.304,0.656-0.544,1.041-0.704l3.504-1.456c-2.912-5.616-6.656-10.704-11.12-15.168
		c-6.736-6.72-14.736-11.648-23.808-14.672C165.568,10.608,151.568,10.848,138.384,15.712z"/>
	<path fill="rgb(255,255,255)" d="M102.416,98.24c0.528-0.24,1.152-0.145,1.568,0.256c0.128,0.128,0.24,0.271,0.32,0.432c1.392,2.977,2.992,5.84,4.784,8.48
		c0.208,0.32,0.288,0.688,0.224,1.072c-0.064,0.367-0.288,0.688-0.592,0.912l-4.032,2.735c-0.32,0.208-0.688,0.288-1.072,0.224
		c-0.272-0.047-0.512-0.176-0.704-0.352c-0.08-0.064-0.144-0.145-0.208-0.24c-2.032-3.008-3.84-6.224-5.392-9.568
		c-0.16-0.352-0.176-0.735-0.048-1.088c0.128-0.367,0.4-0.655,0.736-0.815L102.416,98.24z"/>
	<path fill="rgb(255,255,255)" d="M116.16,116.064l0.016,0.016l0.032,0.031c0.688,0.688,1.408,1.393,2.128,2.049c2.16,1.984,4.48,3.824,6.896,5.472
		c0.064,0.048,0.112,0.08,0.16,0.128l0,0c0.512,0.48,0.608,1.264,0.208,1.856l-2.736,4.016c-0.208,0.32-0.544,0.528-0.912,0.608
		c-0.368,0.064-0.752-0.016-1.056-0.225c-2.768-1.888-5.424-3.983-7.856-6.224c-0.8-0.735-1.584-1.487-2.32-2.24
		c-0.272-0.272-0.416-0.624-0.416-1.008s0.16-0.735,0.432-1.008l3.472-3.425C114.736,115.568,115.6,115.552,116.16,116.064z"/>
	<path fill="rgb(255,255,255)" d="M124.4,21.76c0.464,0.64,0.304,1.536-0.336,1.984c-1.632,1.168-3.2,2.4-4.672,3.696c-0.56,0.48-1.376,0.464-1.904-0.032
		c-0.032-0.032-0.064-0.064-0.096-0.096l-3.232-3.664c-0.256-0.288-0.368-0.656-0.352-1.024c0.032-0.384,0.192-0.736,0.48-0.992
		c1.664-1.456,3.44-2.864,5.28-4.176c0.304-0.224,0.704-0.304,1.072-0.24c0.272,0.048,0.528,0.176,0.736,0.368
		c0.064,0.064,0.128,0.128,0.176,0.208L124.4,21.76z"/>
	<path fill="rgb(255,255,255)" d="M97.408,78.896c0.416-0.048,0.832,0.096,1.136,0.384c0.24,0.224,0.4,0.544,0.432,0.88c0.352,3.104,0.976,6.24,1.824,9.296
		c0.096,0.368,0.064,0.752-0.128,1.071c-0.192,0.337-0.496,0.576-0.864,0.673l-4.704,1.296c-0.48,0.128-0.992,0-1.36-0.336
		c-0.192-0.176-0.32-0.4-0.4-0.656c-0.976-3.488-1.664-7.024-2.08-10.512c-0.048-0.384,0.064-0.752,0.304-1.056
		c0.24-0.288,0.576-0.48,0.96-0.528L97.408,78.896z"/>
	<path fill="rgb(255,255,255)" d="M109.184,27.152c0.384-0.016,0.752,0.112,1.04,0.368l3.632,3.248l0.016,0.016l0.016,0.016
		c0.56,0.528,0.608,1.408,0.08,1.984c-1.568,1.76-3.104,3.712-4.56,5.808c-0.448,0.64-1.328,0.8-1.968,0.368l-4-2.752
		c-0.048-0.032-0.112-0.08-0.176-0.128c-0.224-0.208-0.368-0.48-0.432-0.784c-0.064-0.368,0.016-0.736,0.224-1.056
		c1.616-2.352,3.344-4.56,5.136-6.576C108.464,27.344,108.816,27.168,109.184,27.152z"/>
	<path fill="rgb(255,255,255)" d="M168.432,133.664c0.432-0.064,0.864,0.08,1.185,0.368c0.224,0.224,0.384,0.512,0.432,0.832l0.72,4.848
		c0.049,0.368-0.031,0.752-0.271,1.056c-0.225,0.305-0.561,0.512-0.928,0.561c-4.4,0.64-8.881,0.848-13.312,0.607
		c-0.336-0.016-0.656-0.16-0.896-0.384c-0.304-0.288-0.464-0.688-0.448-1.104l0.24-4.88c0.032-0.784,0.704-1.393,1.488-1.344
		C160.544,134.416,164.527,134.225,168.432,133.664z"/>
	<path fill="rgb(255,255,255)" d="M134.992,129.057l0.08,0.031c0.704,0.305,1.36,0.607,2.048,0.88c2.624,1.04,5.424,1.921,8.352,2.624
		c0.24,0.064,0.464,0.176,0.64,0.352c0.368,0.353,0.528,0.865,0.416,1.361l-1.12,4.735c-0.08,0.353-0.32,0.688-0.64,0.88
		c-0.32,0.208-0.704,0.256-1.072,0.176c-3.216-0.783-6.384-1.791-9.408-2.992c-0.832-0.336-1.648-0.688-2.4-1.023
		c-0.144-0.064-0.288-0.145-0.4-0.256c-0.16-0.145-0.272-0.32-0.352-0.512c-0.144-0.369-0.128-0.752,0.032-1.088l1.968-4.433
		C133.424,129.072,134.272,128.736,134.992,129.057z"/>
	<path fill="rgb(255,255,255)" d="M133.824,16.448c0.16,0.336,0.192,0.72,0.064,1.088c-0.128,0.352-0.384,0.64-0.736,0.816
		c-1.376,0.656-2.768,1.408-4.272,2.272c-0.544,0.32-1.232,0.24-1.696-0.192c-0.096-0.096-0.176-0.192-0.256-0.32l-2.448-4.208
		c-0.192-0.32-0.24-0.72-0.144-1.088c0.096-0.368,0.336-0.672,0.672-0.864c1.68-0.976,3.264-1.824,4.848-2.56
		c0.528-0.256,1.152-0.16,1.584,0.24c0.128,0.128,0.24,0.256,0.304,0.432L133.824,16.448z"/>
	<path fill="rgb(255,255,255)" d="M93.792,59.088l4.768,0.928c0.272,0.048,0.512,0.176,0.704,0.368c0.352,0.336,0.512,0.832,0.416,1.312
		c-0.544,2.8-0.896,5.68-1.024,8.528c-0.016,0.368-0.192,0.736-0.464,0.976c-0.288,0.256-0.656,0.384-1.024,0.368l-4.88-0.24
		c-0.336-0.016-0.656-0.16-0.912-0.384c-0.016-0.016-0.032-0.032-0.064-0.064l0,0l-0.016-0.016c-0.256-0.288-0.384-0.64-0.368-1.024
		c0.16-3.248,0.56-6.48,1.184-9.632c0.08-0.368,0.288-0.688,0.608-0.912C93.04,59.088,93.424,59.008,93.792,59.088z"/>
	<path  fill="rgb(255,255,255)" d="M100.32,41.392l4.32,2.208c0.128,0.064,0.224,0.144,0.32,0.224c0.464,0.432,0.576,1.12,0.288,1.68
		c-0.896,1.776-1.68,3.472-2.352,5.168c-0.272,0.672-0.512,1.36-0.768,2.08c-0.128,0.368-0.384,0.656-0.736,0.832
		c-0.336,0.16-0.736,0.192-1.088,0.064l-4.576-1.616c-0.192-0.064-0.352-0.176-0.496-0.304c-0.128-0.128-0.24-0.272-0.32-0.432
		c-0.16-0.336-0.176-0.72-0.048-1.088l0.064-0.16c0.256-0.72,0.528-1.472,0.816-2.208c0.784-1.952,1.68-3.92,2.656-5.84
		c0.176-0.336,0.464-0.592,0.832-0.704C99.6,41.184,99.984,41.216,100.32,41.392z"/>
</g>
</svg>
